<?xml version="1.0" standalone="no"?>
<!DOCTYPE svg PUBLIC "-//W3C//DTD SVG 20010904//EN"
 "http://www.w3.org/TR/2001/REC-SVG-20010904/DTD/svg10.dtd">
<svg version="1.0" xmlns="http://www.w3.org/2000/svg"
 width="1632.000000pt" height="1632.000000pt" viewBox="0 0 1632.000000 1632.000000"
 preserveAspectRatio="xMidYMid meet">
<metadata>
Created by potrace 1.14, written by Peter Selinger 2001-2017
</metadata>
<g transform="translate(0.000000,1632.000000) scale(0.100000,-0.100000)"
fill="#000000" stroke="none">
<path d="M3397 11863 c-24 -32 -45 -62 -47 -68 -1 -5 -7 -23 -14 -40 -26 -62
-35 -124 -32 -206 2 -46 6 -91 8 -99 37 -137 123 -249 243 -315 136 -75 309
-80 452 -13 27 12 54 28 61 35 7 7 16 13 20 13 14 0 122 112 122 126 0 3 8 18
18 32 60 86 78 284 37 397 -25 68 -64 135 -101 172 l-23 23 -350 0 -350 0 -44
-57z"/>
<path d="M4716 11880 c-1 -3 -2 -894 -2 -1980 l1 -1975 26 -1 c15 -1 34 -4 43
-7 8 -3 18 -2 21 4 4 5 11 6 17 3 6 -4 32 -6 57 -6 25 1 65 2 89 2 23 0 49 0
57 0 8 0 22 0 30 0 8 0 36 0 63 0 26 0 68 1 94 1 25 1 51 -2 57 -5 5 -4 12 -2
16 4 4 6 11 7 17 4 6 -4 32 -6 57 -6 109 5 129 5 138 -1 5 -3 15 -2 23 3 8 5
21 5 29 1 9 -5 25 -5 36 -1 20 7 20 16 21 468 0 254 3 464 5 466 3 3 63 -72
134 -167 72 -94 135 -178 142 -187 7 -8 39 -51 72 -95 33 -44 65 -86 71 -93 6
-7 54 -70 107 -140 53 -70 100 -128 104 -130 5 -2 9 -8 9 -14 0 -6 20 -35 45
-64 41 -48 48 -52 74 -44 15 4 34 4 42 0 7 -5 17 -6 23 -3 12 8 102 7 115 -1
5 -4 12 -2 16 4 4 6 11 7 17 4 6 -4 32 -6 57 -6 25 1 65 2 89 2 23 0 49 0 57
0 8 0 22 0 30 0 8 0 36 0 63 0 26 0 68 1 94 1 25 1 51 -2 57 -5 5 -4 12 -2 16
4 4 6 11 7 17 4 6 -4 32 -6 57 -6 109 5 132 5 137 -1 3 -3 17 -2 30 3 13 5 26
5 29 0 6 -10 54 1 55 13 1 4 -12 25 -29 45 -71 87 -178 221 -196 246 -11 15
-28 37 -38 49 -10 12 -29 36 -42 52 -119 151 -277 350 -305 384 -8 10 -26 33
-40 51 -93 122 -233 296 -241 298 -5 2 -9 10 -9 17 0 7 -3 15 -8 17 -4 2 -50
57 -102 123 -52 66 -102 128 -111 138 -49 54 -49 54 56 203 54 77 111 157 127
179 16 22 71 101 123 175 52 74 98 140 102 145 4 6 16 21 25 35 10 14 40 57
67 95 27 39 75 106 105 150 53 77 197 279 213 300 4 6 24 34 43 63 19 28 38
52 43 52 4 0 7 5 7 11 0 6 14 28 30 49 17 21 30 43 30 49 0 6 5 11 11 11 5 0
8 3 6 8 -3 4 -235 7 -517 7 l-511 -1 -95 -144 c-53 -80 -100 -146 -105 -148
-5 -2 -9 -7 -9 -12 0 -11 -81 -133 -94 -142 -6 -4 -7 -8 -3 -8 4 0 -10 -24
-31 -52 -21 -29 -87 -126 -147 -215 -59 -90 -111 -163 -114 -163 -3 0 -6 423
-5 940 0 848 -1 940 -15 941 -71 4 -873 3 -875 -1z"/>
<path d="M13685 11880 c-6 -12 1 -3949 7 -3956 4 -3 31 -6 60 -5 126 3 147 3
157 -3 5 -4 12 -2 16 4 4 6 11 7 17 4 6 -4 32 -6 57 -5 25 1 57 1 71 1 14 -1
32 -1 40 -1 62 3 110 2 119 -3 5 -4 12 -2 16 4 4 6 11 7 17 4 6 -4 32 -6 57
-6 25 1 65 2 89 2 23 0 49 0 57 0 8 0 23 0 33 0 54 -1 66 1 71 9 3 5 6 217 6
470 -1 254 1 461 3 461 6 0 32 -28 32 -35 0 -5 55 -80 70 -95 3 -3 39 -50 80
-105 41 -55 80 -106 87 -115 7 -8 60 -78 118 -155 133 -177 138 -183 150 -198
6 -6 51 -65 100 -130 49 -66 91 -115 92 -110 2 4 27 7 55 5 29 -1 59 -3 66 -2
17 0 34 0 90 0 26 0 68 1 94 1 25 1 51 -2 57 -5 5 -4 12 -2 16 4 4 6 11 7 17
4 6 -4 32 -6 57 -6 25 1 65 2 89 2 23 0 49 0 57 0 8 0 23 0 33 0 9 0 33 0 52
1 19 1 41 1 48 0 11 -1 23 -1 57 -1 8 0 36 0 63 0 26 0 68 1 94 1 25 1 51 -2
57 -6 21 -12 11 50 -11 75 -13 14 -52 63 -88 110 -35 47 -70 91 -77 98 -7 8
-26 30 -41 50 -15 21 -31 42 -37 48 -5 6 -21 26 -35 44 -14 18 -29 38 -35 44
-5 6 -22 27 -36 46 -15 19 -35 45 -45 57 -11 11 -26 31 -34 43 -8 12 -20 28
-26 34 -5 6 -39 47 -73 91 -35 44 -67 82 -72 83 -5 2 -9 8 -9 13 0 8 -14 27
-45 63 -5 6 -23 29 -39 51 -17 22 -33 42 -36 45 -3 3 -82 102 -175 220 -93
118 -171 217 -175 220 -3 3 -15 18 -26 34 l-21 29 56 81 c30 45 60 86 66 93 5
6 25 33 43 60 97 140 344 490 357 506 8 9 15 19 15 22 0 3 26 40 58 84 103
143 187 262 198 282 6 10 18 27 26 36 8 10 37 50 63 88 27 39 70 101 97 140
26 38 48 72 48 75 0 4 -998 5 -1021 1 -3 -1 -30 -38 -59 -83 -30 -46 -59 -89
-66 -96 -7 -6 -16 -21 -19 -32 -3 -11 -10 -20 -14 -20 -5 0 -14 -13 -21 -30
-7 -16 -16 -30 -20 -30 -4 0 -13 -13 -20 -30 -7 -16 -16 -30 -21 -30 -4 0 -11
-9 -14 -20 -3 -11 -12 -26 -18 -32 -7 -7 -36 -49 -64 -93 -29 -44 -60 -89 -69
-100 -8 -11 -20 -30 -25 -42 -5 -13 -13 -23 -19 -23 -5 0 -10 -7 -10 -15 0 -8
-9 -23 -20 -32 -11 -10 -20 -21 -20 -26 0 -7 -99 -157 -104 -157 -1 0 -2 423
-1 941 0 517 -2 944 -5 947 -6 8 -881 10 -885 2z"/>
<path d="M79 11675 c-1 -11 0 -24 1 -30 1 -5 2 -17 1 -25 -2 -31 -3 -265 -1
-275 1 -5 1 -14 0 -20 -1 -5 -1 -46 -1 -90 2 -80 1 -93 -2 -193 l-2 -52 518 0
517 0 0 -1535 0 -1535 28 0 c15 0 35 0 45 0 9 0 24 0 32 0 8 0 22 0 30 0 8 0
26 0 40 0 14 0 32 0 40 0 27 0 45 0 58 -1 6 0 28 0 47 0 39 1 62 1 105 0 17 0
37 0 45 1 8 0 24 0 35 0 11 -1 26 -1 33 -1 16 1 39 1 55 0 6 0 28 0 47 0 38 1
60 1 105 0 29 0 94 1 126 2 14 0 16 141 15 1535 l-1 1534 515 2 515 3 2 350 2
350 -1474 0 c-1468 0 -1475 0 -1476 -20z"/>
<path d="M7319 11692 c-12 -2 -14 -55 -12 -345 1 -188 2 -345 3 -349 0 -5 231
-8 514 -8 l513 0 0 -1530 c0 -1148 3 -1534 11 -1542 9 -9 12 -9 12 -1 0 8 9 9
30 3 17 -5 32 -5 35 0 3 5 16 6 28 2 20 -7 36 -7 62 -2 22 4 105 1 114 -4 5
-4 12 -2 16 4 4 6 11 7 17 4 6 -4 32 -6 57 -6 25 1 65 2 89 2 23 0 49 0 57 0
22 0 43 0 60 0 8 0 26 0 40 0 14 0 32 0 40 0 27 0 45 0 58 -1 6 0 28 0 47 0
35 1 58 1 95 1 20 1 20 4 20 1533 l0 1532 516 3 516 2 0 350 c0 193 -3 351 -6
351 -13 3 -2918 4 -2932 1z"/>
<path d="M11837 10904 c-2 -3 -80 -15 -122 -19 -322 -34 -656 -219 -870 -480
-81 -100 -187 -282 -215 -370 -7 -22 -16 -44 -20 -50 -5 -5 -8 -12 -8 -15 -1
-3 -6 -18 -12 -34 -6 -16 -8 -31 -5 -34 2 -3 1 -10 -4 -16 -5 -6 -12 -28 -15
-50 -4 -21 -8 -41 -10 -45 -2 -3 -7 -22 -10 -41 -3 -19 -8 -46 -10 -60 -3 -14
-8 -43 -11 -65 -9 -53 -10 -354 -1 -430 9 -83 41 -253 53 -285 3 -8 7 -20 8
-26 9 -38 53 -152 91 -231 183 -383 529 -654 929 -728 160 -30 296 -37 420
-21 17 2 50 6 75 9 60 7 170 35 250 65 36 13 71 24 78 24 6 1 12 5 12 10 0 4
6 8 14 8 8 0 42 16 76 35 34 19 64 35 66 35 6 0 63 41 88 63 11 9 23 17 27 17
9 0 101 81 157 140 36 38 66 75 140 175 62 85 216 444 198 463 -3 3 -2 10 3
16 8 9 18 52 35 142 19 100 26 392 12 489 -4 28 -9 66 -11 85 -2 19 -6 44 -9
55 -23 101 -38 159 -55 207 -10 31 -17 59 -14 62 4 3 1 6 -5 6 -7 0 -12 6 -12
13 0 8 -6 27 -14 43 -15 29 -38 84 -40 94 -1 3 -9 16 -17 30 -9 14 -28 46 -43
72 -60 106 -190 261 -292 348 -65 55 -256 171 -279 170 -3 0 -20 7 -37 16 -69
36 -176 66 -310 89 -70 11 -274 25 -281 19z m118 -765 c146 -38 271 -172 333
-354 78 -228 79 -582 2 -760 -54 -126 -92 -185 -160 -253 -73 -72 -146 -106
-235 -106 -117 0 -185 26 -255 98 -76 76 -168 273 -184 394 -3 23 -9 61 -13
85 -7 50 -11 278 -5 291 3 5 6 25 7 45 2 30 9 66 30 161 10 47 68 172 104 224
97 140 246 210 376 175z"/>
<path d="M3357 10880 c-9 -4 -12 -334 -12 -1481 l0 -1476 23 -2 c12 -1 30 -1
40 -1 9 0 31 0 47 -1 17 0 37 0 45 1 8 0 24 0 35 0 11 -1 26 -1 33 -1 16 1 39
1 55 0 12 0 77 0 112 2 11 0 27 0 35 0 8 0 33 0 55 0 22 0 46 0 53 0 12 -1 28
-1 57 -1 8 0 36 0 63 0 26 0 68 1 94 1 25 1 51 -2 57 -5 5 -4 12 -2 16 3 3 6
15 7 29 1 12 -4 27 -5 33 -2 10 7 17 2916 7 2952 -3 13 -60 15 -434 15 -237 0
-436 -2 -443 -5z"/>
<path d="M7405 6782 c-19 -3 -20 -10 -19 -293 l1 -290 -26 5 c-14 3 -53 10
-86 16 -57 12 -230 9 -282 -4 -13 -3 -33 -8 -45 -11 -51 -11 -162 -59 -215
-94 -70 -45 -220 -192 -217 -211 1 -3 -10 -22 -23 -44 -60 -94 -105 -237 -119
-376 -5 -53 -5 -261 0 -298 13 -87 17 -110 22 -132 3 -14 7 -32 8 -40 6 -39
39 -136 68 -197 74 -162 186 -285 321 -352 45 -22 96 -44 112 -48 51 -12 397
-14 412 -1 7 6 13 8 13 5 0 -4 19 0 41 8 52 19 50 19 47 -2 -3 -17 18 -18 305
-21 l307 -2 0 1190 c0 654 -3 1190 -7 1191 -19 3 -600 4 -618 1z m-117 -1144
c9 -7 35 -33 57 -57 l41 -43 0 -227 -1 -227 -28 -29 c-93 -98 -86 -94 -138
-91 -30 1 -59 10 -75 22 -32 23 -83 110 -95 162 -5 20 -12 46 -14 57 -9 36 -5
240 5 240 1 0 3 11 6 25 8 46 64 148 92 166 49 34 109 35 150 2z"/>
<path d="M12100 6780 c-9 -6 -6 -1875 3 -1910 4 -14 9 -36 11 -50 10 -50 15
-70 23 -83 4 -6 8 -18 9 -25 2 -13 31 -72 59 -121 28 -49 108 -122 168 -154
l62 -32 260 0 c143 0 271 3 285 7 14 4 34 7 45 7 19 1 20 7 19 243 -1 134 -2
245 -3 248 -1 3 -50 6 -110 6 -150 2 -179 8 -188 42 -3 14 -6 430 -6 924 0
639 -3 898 -11 899 -39 4 -619 3 -626 -1z"/>
<path d="M14751 6780 c-4 -3 -7 -539 -7 -1193 l0 -1187 311 2 c241 2 309 6
307 16 -3 16 24 15 73 -3 29 -10 88 -14 211 -15 145 0 180 3 232 20 168 55
318 193 411 377 l31 60 0 462 c0 451 -1 463 -21 504 -47 93 -129 191 -214 257
-45 35 -162 103 -175 103 -3 0 -15 3 -27 8 -93 35 -312 50 -402 27 -20 -5 -49
-10 -66 -11 l-29 -2 -1 282 c0 155 -4 285 -8 290 -9 8 -614 12 -626 3z m895
-1157 c89 -102 127 -326 80 -468 -44 -133 -92 -186 -173 -193 -30 -3 -93 23
-93 39 0 4 -17 24 -38 45 l-37 39 1 213 c1 116 2 218 3 225 2 25 98 121 132
132 46 16 94 3 125 -32z"/>
<path d="M11160 6709 c0 -4 -21 -10 -46 -14 -68 -10 -83 -13 -123 -27 -20 -7
-38 -13 -41 -13 -16 -5 -49 -19 -75 -33 -16 -9 -30 -15 -30 -13 0 2 -12 -3
-27 -10 -16 -7 -28 -16 -28 -21 0 -4 -5 -8 -11 -8 -37 0 -191 -142 -263 -243
-49 -69 -126 -215 -126 -239 0 -8 -4 -18 -9 -23 -12 -12 -45 -131 -57 -204 -3
-18 -8 -43 -10 -55 -11 -55 -23 -366 -14 -366 3 0 5 -17 5 -38 -1 -90 37 -282
75 -377 25 -63 42 -102 50 -115 5 -8 22 -39 36 -67 15 -29 31 -53 36 -53 4 0
8 -6 8 -13 0 -8 34 -50 75 -95 112 -120 229 -196 382 -249 74 -26 89 -28 297
-30 164 -2 223 0 234 9 8 7 17 12 19 10 4 -4 65 8 78 16 6 4 15 7 21 8 24 4
133 60 184 95 63 43 89 65 184 157 l68 66 -39 36 c-34 31 -124 110 -193 170
-55 47 -156 137 -194 173 l-41 37 -24 -27 c-123 -144 -189 -185 -298 -185 -35
0 -70 5 -76 11 -6 6 -19 11 -28 11 -27 0 -112 89 -137 143 -58 123 -75 220
-76 417 0 175 20 289 68 395 49 108 140 174 246 179 109 6 150 -18 284 -162
21 -23 41 -42 45 -42 3 0 31 24 62 53 32 29 85 77 119 107 34 30 72 64 84 75
13 11 62 56 110 100 l88 79 -94 89 c-51 49 -122 108 -158 132 -59 38 -167 94
-194 100 -6 1 -18 4 -26 7 -38 14 -102 29 -146 34 -27 3 -53 9 -59 12 -13 9
-215 9 -215 1z"/>
<path d="M0 6409 l0 -269 278 -2 277 -3 3 -120 c1 -66 2 -127 3 -135 0 -8 0
-62 0 -120 -1 -58 -1 -112 0 -120 0 -8 0 -62 0 -120 -1 -58 -1 -112 0 -120 0
-8 0 -62 0 -120 -1 -58 -1 -112 0 -120 0 -8 0 -67 0 -130 0 -63 -1 -128 0
-145 0 -16 -2 -63 -3 -103 -2 -39 0 -72 4 -72 3 0 4 -8 2 -17 -7 -29 -10 -143
-3 -143 3 0 3 -21 0 -47 -3 -27 -5 -60 -3 -76 l3 -27 321 2 322 3 0 66 c0 36
-4 70 -8 77 -4 7 -4 18 0 24 10 16 11 114 2 151 -4 15 -4 27 0 27 4 0 7 41 7
90 0 50 -4 90 -8 90 -5 0 -5 5 -1 11 9 15 11 160 1 166 -4 2 -4 9 -1 15 10 16
11 128 1 128 -5 0 -5 5 -1 11 9 15 11 160 1 166 -4 2 -4 9 -1 15 10 16 11 128
1 128 -5 0 -5 5 -1 11 9 15 11 160 1 166 -4 2 -4 9 -1 15 10 15 11 128 2 128
-4 0 -4 10 0 23 9 26 8 138 0 153 -4 5 -3 16 1 23 5 7 6 22 4 32 -5 18 5 19
289 19 l294 0 -1 268 0 267 -893 1 -892 1 0 -268z"/>
<path d="M8888 6254 c-3 -2 -45 -5 -93 -5 -48 0 -95 -4 -104 -9 -9 -5 -38 -14
-66 -20 -134 -29 -274 -111 -355 -207 -43 -50 -66 -86 -89 -138 -23 -51 -25
-59 -41 -135 -9 -46 -7 -205 4 -249 12 -53 68 -154 107 -196 91 -97 242 -192
374 -235 118 -39 235 -83 235 -89 0 -14 -158 -19 -215 -6 -36 8 -97 42 -187
107 -52 37 -70 45 -78 35 -15 -17 -83 -121 -160 -247 -35 -58 -74 -119 -87
-136 -13 -17 -23 -35 -23 -39 0 -5 -7 -16 -14 -24 -18 -20 -12 -29 34 -61 19
-13 37 -27 40 -30 6 -7 158 -100 164 -100 2 0 25 -10 52 -22 27 -12 54 -23 59
-25 6 -1 28 -7 50 -13 42 -10 479 -13 489 -2 4 3 13 7 21 8 60 9 225 80 225
96 0 5 6 8 13 8 7 0 20 8 29 18 9 9 35 36 59 59 52 49 101 127 131 209 18 49
22 80 22 179 -1 152 -9 184 -69 280 -72 113 -185 197 -350 260 -38 15 -79 31
-90 35 -11 5 -38 14 -60 21 -60 18 -145 58 -145 67 0 14 60 18 141 8 79 -9
159 -37 262 -91 60 -32 87 -42 87 -32 0 8 10 34 23 58 12 24 45 94 72 154 27
61 53 112 57 113 5 2 8 7 8 12 0 5 14 38 30 73 17 36 30 69 30 74 0 20 -260
166 -316 177 -11 3 -31 9 -45 14 -15 6 -29 8 -32 6 -3 -3 -14 -1 -24 4 -10 6
-45 13 -77 16 -33 3 -62 9 -65 13 -7 10 -27 14 -33 7z"/>
<path d="M3710 6239 c0 -6 -22 -12 -89 -25 -8 -2 -26 -6 -40 -10 -14 -4 -29
-7 -33 -6 -5 1 -8 -2 -8 -8 0 -5 -9 -10 -19 -10 -11 0 -23 -4 -26 -10 -3 -5
-13 -10 -21 -10 -8 0 -20 -5 -27 -10 -7 -6 -34 -25 -61 -42 -73 -47 -163 -134
-221 -213 -54 -74 -122 -205 -134 -257 -1 -4 -8 -26 -16 -48 -8 -22 -14 -42
-15 -45 0 -3 0 -6 -1 -7 -19 -63 -26 -231 -14 -351 10 -106 78 -318 109 -339
6 -4 8 -8 3 -8 -7 0 38 -75 60 -98 7 -7 13 -17 13 -22 0 -20 153 -161 224
-206 43 -27 81 -49 85 -50 3 0 20 -6 36 -13 96 -41 159 -51 326 -51 118 0 178
4 207 14 22 8 42 12 45 10 3 -3 13 -1 24 4 10 5 48 23 86 42 104 50 195 127
279 237 35 45 38 54 28 74 -12 22 -92 145 -107 164 -4 6 -20 29 -36 53 l-28
42 28 0 c16 0 37 0 48 0 11 0 42 0 68 0 27 0 52 2 56 4 4 3 13 1 20 -3 7 -5
27 -5 44 -2 27 6 31 11 33 41 1 19 6 60 10 90 10 67 11 229 1 290 -13 87 -19
115 -28 133 -5 9 -7 17 -4 17 6 0 -26 83 -64 165 -98 210 -328 393 -551 436
-36 7 -71 17 -78 23 -17 12 -58 14 -90 4 -13 -5 -21 -5 -19 0 3 4 -19 7 -49 7
-30 1 -54 -2 -54 -6z m155 -579 c0 -1 8 -3 17 -5 21 -4 78 -43 78 -54 0 -4
-61 -7 -135 -7 -74 0 -135 3 -135 6 0 13 47 44 85 55 31 10 90 13 90 5z m-45
-623 c0 -5 5 -5 10 -2 13 8 100 12 100 5 0 -3 29 -3 65 0 36 3 65 2 65 -2 0
-10 -40 -31 -40 -21 0 4 -4 2 -9 -5 -4 -7 -14 -15 -22 -16 -8 -2 -23 -7 -34
-12 -23 -10 -159 -11 -190 -2 -11 4 -23 7 -26 7 -8 1 -59 45 -59 51 0 3 32 5
70 5 39 0 70 -4 70 -8z"/>
<path d="M5600 6227 c-35 -4 -97 -19 -137 -32 -80 -27 -102 -30 -104 -15 -1 6
-2 16 -3 23 -1 9 -64 13 -271 14 -148 1 -279 1 -290 -2 -20 -4 -20 -12 -18
-897 1 -491 2 -899 2 -905 1 -10 72 -13 321 -13 l320 0 0 614 0 614 28 10 c48
18 61 21 108 28 73 10 90 1 112 -59 24 -65 25 -84 26 -700 l1 -507 320 2 320
3 -1 585 c0 547 -2 630 -20 720 -9 50 -10 52 -23 85 -6 17 -17 44 -23 60 -45
117 -222 280 -369 339 -87 36 -189 47 -299 33z"/>
<path d="M2657 6223 c-1 -1 -22 -4 -47 -8 -25 -3 -78 -15 -118 -25 -88 -24
-80 -25 -84 3 l-3 22 -287 2 -288 1 0 -909 0 -909 320 0 320 0 0 38 c1 20 1
283 1 584 l0 548 42 11 c59 17 221 15 287 -4 30 -9 78 -22 107 -30 28 -8 56
-18 61 -21 6 -3 13 -2 17 4 5 7 9 563 6 683 -1 18 -11 19 -167 15 -91 -1 -166
-4 -167 -5z"/>
<path d="M13056 6211 c-7 -11 1 -1240 8 -1279 3 -18 10 -40 15 -50 5 -9 10
-21 10 -27 21 -155 239 -380 423 -436 57 -18 87 -20 215 -16 158 4 161 4 239
35 56 23 64 21 64 -15 l0 -23 290 0 c269 0 290 1 291 18 1 22 1 1785 0 1793
-1 4 -145 7 -321 7 l-320 0 0 -612 0 -613 -22 -11 c-48 -23 -135 -36 -180 -26
-34 7 -55 51 -64 135 -4 35 -7 303 -8 594 l-1 530 -317 2 c-175 1 -320 -2
-322 -6z"/>
</g>
</svg>
